<svg xmlns="http://www.w3.org/2000/svg" viewBox="0 0 64 64" id="air-conditioner"><path d="M2.013,35.154H3.39l2.231,4.4a1,1,0,0,0,.892.548H57.487a1,1,0,0,0,.892-.548l2.231-4.4h1.384a1,1,0,0,0,1-1V12.315A2.82,2.82,0,0,0,60.178,9.5H3.822a2.82,2.82,0,0,0-2.816,2.816V34.154A1.006,1.006,0,0,0,2.013,35.154ZM51.267,16.8h4.351v6.01H51.267Zm-1,8.01h6.351a1,1,0,0,0,1-1V16.8h3.376V33.154h-4.7l-1.99-4.22a1,1,0,0,0-.9-.573H10.606a1,1,0,0,0-.9.573l-1.991,4.22h-4.7V16.8H49.267v7.01A1,1,0,0,0,50.267,24.807Zm3.811,8.347H9.922l1.318-2.793H52.761ZM56.873,38.1H7.127L5.632,35.154H58.368ZM60.1,11.5a.891.891,0,0,1,.89.89V14.8H3.006V12.389a.891.891,0,0,1,.89-.89Z"></path><path d="M11.559 21.251a1.328 1.328 0 101.328 1.328A1.328 1.328 0 0011.559 21.251zM16.87 21.251A1.328 1.328 0 1018.2 22.579 1.329 1.329 0 0016.87 21.251z"></path><polygon points="31 43.108 31 55.104 29.115 55.104 32 59.423 34.885 55.104 33 55.104 33 43.108 31 43.108"></polygon><path d="M46.525 43.108v6.12a9.02 9.02 0 002.649 6.408l.984.986-1.313 1.4 5.123.854L52.8 53.814l-1.267 1.35-.938-.94a7.036 7.036 0 01-2.065-5v-6.12zM17.475 49.228v-6.12h-2v6.12a7.032 7.032 0 01-2.065 5l-.938.94-1.267-1.35-1.173 5.06 5.123-.854-1.312-1.4.983-.987A9.018 9.018 0 0017.475 49.228z"></path></svg>