<svg xmlns="http://www.w3.org/2000/svg" enable-background="new 0 0 64 64" viewBox="0 0 64 64" id="parking-area"><path d="M52,1H30c-2.206,0-4,1.794-4,4v2h-3c0-3.309-2.691-6-6-6s-6,2.691-6,6v52h-1c-1.104,0-2,0.896-2,2s0.896,2,2,2h14
			c1.104,0,2-0.896,2-2s-0.896-2-2-2h-1V31h3v2c0,2.206,1.794,4,4,4h22c2.206,0,4-1.794,4-4V5C56,2.794,54.206,1,52,1z M15,59V7
			c0-1.103,0.897-2,2-2s2,0.897,2,2v52H15z M23,27V11h3v16H23z M30,33V5h22l0.003,28H30z"></path><path d="M41,9h-5c-1.104,0-2,0.896-2,2v10v7c0,1.104,0.896,2,2,2s2-0.896,2-2v-5h3c3.859,0,7-3.141,7-7S44.859,9,41,9z M41,19h-3
			v-6h3c1.654,0,3,1.346,3,3S42.654,19,41,19z"></path></svg>