<svg xmlns="http://www.w3.org/2000/svg" enable-background="new 0 0 64 64" viewBox="0 0 64 64" id="washing-machine"><path d="M55.74,60.95H8.26c-1.61,0-2.91-1.31-2.91-2.91V2.91C5.35,1.31,6.65,0,8.26,0h47.48c1.61,0,2.91,1.31,2.91,2.91v55.13
			C58.65,59.65,57.35,60.95,55.74,60.95z M8.26,1.94c-0.54,0-0.97,0.44-0.97,0.97v55.13c0,0.54,0.44,0.97,0.97,0.97h47.48
			c0.54,0,0.97-0.44,0.97-0.97V2.91c0-0.54-0.44-0.97-0.97-0.97H8.26z"></path><path d="M32,53.82c-9.29,0-16.85-7.56-16.85-16.85S22.71,20.13,32,20.13c9.29,0,16.85,7.56,16.85,16.85S41.29,53.82,32,53.82z
			 M32,22.07c-8.22,0-14.91,6.69-14.91,14.91S23.78,51.88,32,51.88c8.22,0,14.91-6.69,14.91-14.91S40.22,22.07,32,22.07z"></path><path d="M32 49.36c-6.83 0-12.38-5.56-12.38-12.38 0-6.83 5.56-12.38 12.38-12.38 6.83 0 12.38 5.56 12.38 12.38C44.38 43.8 38.83 49.36 32 49.36zM32 26.53c-5.76 0-10.44 4.69-10.44 10.44 0 5.76 4.69 10.44 10.44 10.44 5.76 0 10.44-4.69 10.44-10.44C42.44 31.21 37.76 26.53 32 26.53zM57.68 14.61H6.32c-.54 0-.97-.43-.97-.97 0-.54.43-.97.97-.97h51.36c.54 0 .97.43.97.97C58.65 14.18 58.22 14.61 57.68 14.61z"></path><path d="M22.59 14.61c-.54 0-.97-.43-.97-.97V.97c0-.54.43-.97.97-.97s.97.43.97.97v12.67C23.56 14.18 23.12 14.61 22.59 14.61zM41.54 10.16H27.18c-.54 0-.97-.43-.97-.97V5.42c0-.54.43-.97.97-.97h14.36c.54 0 .97.43.97.97v3.76C42.51 9.72 42.08 10.16 41.54 10.16zM28.15 8.22h12.42V6.39H28.15V8.22zM47.63 6.39h-.99c-.54 0-.97-.43-.97-.97s.43-.97.97-.97h.99c.54 0 .97.43.97.97S48.16 6.39 47.63 6.39zM52.47 6.39h-.99c-.54 0-.97-.43-.97-.97s.43-.97.97-.97h.99c.54 0 .97.43.97.97S53.01 6.39 52.47 6.39zM47.63 10.16h-.99c-.54 0-.97-.43-.97-.97 0-.54.43-.97.97-.97h.99c.54 0 .97.43.97.97C48.6 9.72 48.16 10.16 47.63 10.16zM52.47 10.16h-.99c-.54 0-.97-.43-.97-.97 0-.54.43-.97.97-.97h.99c.54 0 .97.43.97.97C53.44 9.72 53.01 10.16 52.47 10.16z"></path><g><path d="M14.76,11.19c-2.14,0-3.88-1.74-3.88-3.88s1.74-3.88,3.88-3.88s3.88,1.74,3.88,3.88S16.9,11.19,14.76,11.19z M14.76,5.36
			c-1.07,0-1.94,0.87-1.94,1.94c0,1.07,0.87,1.94,1.94,1.94c1.07,0,1.94-0.87,1.94-1.94C16.7,6.23,15.83,5.36,14.76,5.36z"></path></g><g><path d="M47.06,32.92c-0.25,0-0.5-0.09-0.68-0.28c-0.38-0.38-0.38-0.99,0-1.37l2.39-2.39c-1.85-3.59-4.77-6.5-8.68-8.65
			l-2.38,2.39c-0.38,0.38-0.99,0.38-1.37,0c-0.38-0.38-0.38-0.99,0-1.37l2.89-2.9c0.3-0.3,0.76-0.37,1.13-0.18
			c4.83,2.5,8.35,6.03,10.46,10.49c0.18,0.37,0.1,0.81-0.19,1.1l-2.88,2.89C47.56,32.83,47.31,32.92,47.06,32.92z"></path></g><g><path d="M39.81,38.2c-2.98,0-5.6-0.49-7.98-0.93c-4.07-0.76-7.28-1.36-10.77,0.56c-0.47,0.26-1.06,0.09-1.32-0.38
			c-0.26-0.47-0.09-1.06,0.38-1.32c4.1-2.25,7.97-1.53,12.06-0.77c3.19,0.6,6.8,1.27,11.1,0.66c0.53-0.08,1.02,0.29,1.1,0.82
			c0.08,0.53-0.29,1.02-0.82,1.1C42.24,38.12,40.99,38.2,39.81,38.2z"></path></g><g><path d="M16.81 64h-6.22c-.54 0-.97-.43-.97-.97v-3.05c0-.54.43-.97.97-.97.54 0 .97.43.97.97v2.08h4.28v-2.08c0-.54.43-.97.97-.97.54 0 .97.43.97.97v3.05C17.78 63.57 17.35 64 16.81 64zM53.41 64h-6.22c-.54 0-.97-.43-.97-.97v-3.05c0-.54.43-.97.97-.97.54 0 .97.43.97.97v2.08h4.28v-2.08c0-.54.43-.97.97-.97.54 0 .97.43.97.97v3.05C54.38 63.57 53.95 64 53.41 64z"></path></g></svg>