<svg xmlns="http://www.w3.org/2000/svg" width="32" height="32" id="user"><g fill="#1C1C1C" fill-rule="evenodd" clip-rule="evenodd"><path d="M16 0C7.163 0 0 7.163 0 16s7.163 16 16 16 16-7.163 16-16S24.837 0 16 0zm0 31C7.716 31 1 24.284 1 16 1 7.716 7.716 1 16 1s15 6.716 15 15c0 8.284-6.716 15-15 15z"></path><path d="M19.37 15.672A4.968 4.968 0 0 0 21 12a5 5 0 0 0-10 0c0 1.458.634 2.758 1.63 3.672C9.332 17.006 7 20.224 7 24h18c0-3.776-2.332-6.994-5.63-8.328zM12 12a4 4 0 1 1 6.26 3.298c-.05.034-.106.06-.158.092-.145.09-.295.174-.452.245-.077.035-.158.065-.238.095-.15.057-.304.105-.462.143-.075.018-.149.039-.226.053-.235.044-.476.074-.724.074s-.489-.03-.725-.073c-.077-.014-.151-.035-.226-.053a4.194 4.194 0 0 1-.462-.143c-.08-.03-.16-.06-.238-.095a3.934 3.934 0 0 1-.452-.245c-.052-.032-.108-.058-.158-.092A3.998 3.998 0 0 1 12 12zM8.069 23a8.003 8.003 0 0 1 5.546-6.631c.712.389 1.516.631 2.385.631s1.673-.242 2.385-.631A8.004 8.004 0 0 1 23.931 23H8.069z"></path></g></svg>